<?xml version="1.0" encoding="UTF-8" standalone="no"?>
<!-- Created with Inkscape (http://www.inkscape.org/) -->

<svg
   version="1.1"
   id="svg8519"
   width="800"
   height="800"
   viewBox="0 0 800 800"
   sodipodi:docname="tablet-pc-with-chart-pdv.svg"
   inkscape:version="1.2 (dc2aedaf03, 2022-05-15)"
   xmlns:inkscape="http://www.inkscape.org/namespaces/inkscape"
   xmlns:sodipodi="http://sodipodi.sourceforge.net/DTD/sodipodi-0.dtd"
   xmlns="http://www.w3.org/2000/svg"
   xmlns:svg="http://www.w3.org/2000/svg">
  <defs
     id="defs8523">
    <clipPath
       clipPathUnits="userSpaceOnUse"
       id="clipPath8537">
      <path
         d="M 0,600 H 600 V 0 H 0 Z"
         id="path8535" />
    </clipPath>
  </defs>
  <sodipodi:namedview
     id="namedview8521"
     pagecolor="#ffffff"
     bordercolor="#000000"
     borderopacity="0.25"
     inkscape:showpageshadow="2"
     inkscape:pageopacity="0.0"
     inkscape:pagecheckerboard="0"
     inkscape:deskcolor="#d1d1d1"
     showgrid="false"
     inkscape:zoom="1.04625"
     inkscape:cx="400"
     inkscape:cy="400.4779"
     inkscape:window-width="1920"
     inkscape:window-height="1017"
     inkscape:window-x="-8"
     inkscape:window-y="-8"
     inkscape:window-maximized="1"
     inkscape:current-layer="g8527">
    <inkscape:page
       x="0"
       y="0"
       id="page8525"
       width="800"
       height="800" />
  </sodipodi:namedview>
  <g
     id="g8527"
     inkscape:groupmode="layer"
     inkscape:label="Page 1"
     transform="matrix(1.3333333,0,0,-1.3333333,0,800)">
    <path
       d="M 0.61,0 H 600 V 599.456 H 0.61 Z"
       style="fill:#e6e6e6;fill-opacity:1;fill-rule:nonzero;stroke:none"
       id="path8529" />
    <g
       id="g8531">
      <g
         id="g8533"
         clip-path="url(#clipPath8537)">
        <g
           id="g8539"
           transform="translate(59.1353,194.6592)">
          <path
             d="m 0,0 261.972,151.251 c 18.171,10.49 38.969,10.49 57.138,0 L 496.086,49.074 c 5.8,-3.35 9.118,-9.099 9.118,-15.796 0,-6.696 -3.318,-12.446 -9.118,-15.796 L 233.201,-134.295 c -17.591,-10.155 -37.726,-10.155 -55.314,0 L 0,-31.59 c -5.8,3.347 -9.119,9.096 -9.119,15.794 C -9.119,-9.098 -5.8,-3.348 0,0"
             style="fill:#cfcfcf;fill-opacity:1;fill-rule:evenodd;stroke:none"
             id="path8541" />
        </g>
        <g
           id="g8543"
           transform="translate(557.4971,256.4932)">
          <path
             d="m 0,0 v -13.604 c 0,-11.158 -5.534,-20.744 -15.197,-26.322 l -256.805,-148.261 c -17.586,-10.151 -37.725,-10.151 -55.313,0 l -171.807,99.165 c -9.663,5.578 -15.197,15.16 -15.197,26.322 v 13.691 z"
             style="fill:#666666;fill-opacity:1;fill-rule:evenodd;stroke:none"
             id="path8545" />
        </g>
        <g
           id="g8547"
           transform="translate(52.2944,223.624)">
          <path
             d="m 0,0 261.975,151.25 c 18.168,10.491 38.966,10.491 57.137,0 L 496.086,49.071 c 5.8,-3.345 9.122,-9.095 9.122,-15.794 0,-6.698 -3.322,-12.448 -9.122,-15.795 L 233.201,-134.296 c -17.589,-10.155 -37.723,-10.155 -55.313,0 L 0,-31.592 c -5.8,3.35 -9.119,9.1 -9.119,15.796 C -9.119,-9.1 -5.8,-3.351 0,0"
             style="fill:#333333;fill-opacity:1;fill-rule:evenodd;stroke:none"
             id="path8549" />
        </g>
        <g
           id="g8551"
           transform="translate(59.7402,210.1602)">
          <path
             d="M 0,0 281.138,162.315 478.467,48.387 197.329,-113.927 Z"
             style="fill:#497bad;fill-opacity:1;fill-rule:evenodd;stroke:none"
             id="path8553" />
        </g>
        <g
           id="g8555"
           transform="translate(375.1914,164.4307)">
          <path
             d="m 0,0 -118.122,-68.197 -139.17,80.349 V 24.054 L 0,172.601 Z"
             style="fill:#6d947c;fill-opacity:1;fill-rule:evenodd;stroke:none"
             id="path8557" />
        </g>
        <g
           id="g8559"
           transform="translate(423.2881,192.1992)">
          <path
             d="m 0,0 -166.219,-95.966 -91.074,52.581 v 11.904 L 0,117.067 Z"
             style="fill:#8f946b;fill-opacity:1;fill-rule:evenodd;stroke:none"
             id="path8561" />
        </g>
        <g
           id="g8563"
           transform="translate(470.7891,219.625)">
          <path
             d="m 0,0 -213.72,-123.392 -43.573,25.157 v 11.903 L 0,62.217 Z"
             style="fill:#8974a5;fill-opacity:1;fill-rule:evenodd;stroke:none"
             id="path8565" />
        </g>
        <g
           id="g8567"
           transform="translate(117.8989,248.9766)">
          <path
             d="m 0,0 c 3.526,11.872 7.103,23.757 10.679,35.688 3.576,4.116 7.153,8.253 10.729,12.389 3.576,5.971 7.153,11.945 10.729,17.917 3.551,6.068 7.127,12.146 10.703,18.248 3.577,0.619 7.153,1.258 10.729,1.899 3.576,4.116 7.153,8.254 10.729,12.393 3.552,-2.614 7.128,-5.213 10.704,-7.791 3.576,6.556 7.153,13.111 10.729,19.688 3.576,0.79 7.152,1.582 10.729,2.395 3.551,7.274 7.127,14.562 10.704,21.872 3.576,1.267 7.152,2.533 10.729,3.82 3.576,6.492 7.152,13.004 10.753,19.518 3.526,0.451 7.103,0.939 10.679,1.426 3.576,5.541 7.153,11.081 10.729,16.642 3.576,2.066 7.153,4.13 10.729,6.196 3.551,6 7.128,12.057 10.704,18.094 3.576,2.064 7.152,4.13 10.729,6.195 3.577,-1.929 7.153,-3.835 10.729,-5.721 3.551,3.323 7.102,6.639 10.679,9.978 3.601,5.54 7.177,11.123 10.728,16.662 3.576,2.066 7.178,4.132 10.754,6.197 3.524,6.95 7.102,13.936 10.679,20.923 3.601,4.914 7.177,9.829 10.754,14.766 3.576,11.5 7.153,23.022 10.753,34.544 V 195.953 88.055 C 214.378,63.297 171.457,38.518 128.596,13.768 85.731,-10.984 42.816,-35.751 0,-60.492 v 30.202 z"
             style="fill:#a7bf1c;fill-opacity:1;fill-rule:evenodd;stroke:none"
             id="path8569" />
        </g>
        <g
           id="g8571"
           transform="translate(165.9951,160.7178)">
          <path
             d="m 0,0 v 34.845 c 3.524,6.905 7.1,13.848 10.676,20.792 3.576,3.249 7.153,6.524 10.702,9.817 3.579,6.125 7.18,12.291 10.758,18.458 3.55,0.841 7.1,1.695 10.675,2.575 3.603,4.59 7.18,9.202 10.756,13.794 3.576,-2.273 7.152,-4.57 10.729,-6.801 3.551,4.186 7.127,8.41 10.703,12.656 3.577,3.272 7.153,6.548 10.729,9.82 3.577,7.182 7.153,14.364 10.73,21.566 3.551,1.123 7.127,2.281 10.703,3.439 3.576,6.036 7.153,12.075 10.729,18.112 3.576,0.726 7.152,1.474 10.756,2.223 3.524,3.843 7.101,7.718 10.676,11.596 3.577,-0.352 7.154,-0.704 10.73,-1.037 3.576,4.936 7.152,9.894 10.728,14.852 3.552,1.208 7.128,2.431 10.704,3.654 3.577,5.539 7.153,11.102 10.729,16.664 3.576,3.857 7.153,7.736 10.729,11.615 3.551,0.84 7.127,1.694 10.703,2.572 3.578,6.749 7.154,13.498 10.73,20.268 3.576,3.62 7.152,7.239 10.729,10.88 3.551,5.418 7.102,10.849 10.704,16.282 3.576,0.619 7.152,1.237 10.728,1.878 3.576,6.62 7.153,13.242 10.757,19.883 V 219.466 148.549 C 214.375,123.789 171.457,99.011 128.594,74.259 85.727,49.508 42.811,24.739 0,0"
             style="fill:#ffbb00;fill-opacity:1;fill-rule:evenodd;stroke:none"
             id="path8573" />
        </g>
        <g
           id="g8575"
           transform="translate(213.4961,133.293)">
          <path
             d="m 0,0 v 18.717 c 3.526,5.523 7.102,11.085 10.679,16.646 3.576,2.065 7.152,4.129 10.703,6.192 3.576,4.763 7.153,9.527 10.754,14.311 3.524,0.842 7.103,1.697 10.679,2.575 3.602,3.166 7.178,6.332 10.754,9.498 3.577,-0.138 7.153,-0.274 10.729,-0.41 3.551,5.05 7.128,10.116 10.704,15.224 3.576,3.47 7.152,6.937 10.729,10.404 3.576,5.842 7.153,11.731 10.729,17.618 3.551,1.25 7.127,2.515 10.703,3.782 3.576,3.166 7.153,6.332 10.73,9.498 3.576,0.144 7.152,0.309 10.753,0.477 3.527,3.149 7.103,6.315 10.679,9.481 3.576,-0.656 7.153,-1.29 10.729,-1.922 3.576,4.267 7.152,8.534 10.729,12.822 3.551,2.048 7.127,4.115 10.703,6.18 3.576,4.462 7.154,8.922 10.73,13.406 3.576,6.058 7.152,12.141 10.728,18.221 3.552,1.013 7.128,2.04 10.704,3.068 3.577,3.599 7.153,7.194 10.729,10.814 3.576,0.509 7.152,1.043 10.729,1.575 3.551,4.079 7.127,8.193 10.704,12.308 3.576,1.31 7.153,2.64 10.729,3.971 3.576,6.102 7.152,12.205 10.754,18.328 V 190.643 148.549 C 214.377,123.789 171.459,99.01 128.596,74.259 85.731,49.507 42.815,24.739 0,0"
             style="fill:#ff6699;fill-opacity:1;fill-rule:evenodd;stroke:none"
             id="path8577" />
        </g>
      </g>
    </g>
  </g>
</svg>
