<?xml version="1.0" encoding="UTF-8" standalone="no"?>
<svg
   version="1.1"
   id="Capa_1"
   x="0px"
   y="0px"
   viewBox="0 0 197.374 197.374"
   style="enable-background:new 0 0 197.374 197.374;"
   xml:space="preserve"
   sodipodi:docname="muscle.svg"
   inkscape:version="1.2.2 (732a01da63, 2022-12-09)"
   xmlns:inkscape="http://www.inkscape.org/namespaces/inkscape"
   xmlns:sodipodi="http://sodipodi.sourceforge.net/DTD/sodipodi-0.dtd"
   xmlns="http://www.w3.org/2000/svg"
   xmlns:svg="http://www.w3.org/2000/svg"
   xmlns:rdf="http://www.w3.org/1999/02/22-rdf-syntax-ns#"
   xmlns:cc="http://creativecommons.org/ns#"
   xmlns:dc="http://purl.org/dc/elements/1.1/"><metadata
   id="metadata55"><rdf:RDF><cc:Work
       rdf:about=""><dc:format>image/svg+xml</dc:format><dc:type
         rdf:resource="http://purl.org/dc/dcmitype/StillImage" /></cc:Work></rdf:RDF></metadata><defs
   id="defs53" /><sodipodi:namedview
   pagecolor="#ffffff"
   bordercolor="#666666"
   borderopacity="1"
   objecttolerance="10"
   gridtolerance="10"
   guidetolerance="10"
   inkscape:pageopacity="0"
   inkscape:pageshadow="2"
   inkscape:window-width="1920"
   inkscape:window-height="1017"
   id="namedview51"
   showgrid="false"
   inkscape:zoom="4.3065451"
   inkscape:cx="98.686996"
   inkscape:cy="98.686996"
   inkscape:window-x="-8"
   inkscape:window-y="-8"
   inkscape:window-maximized="1"
   inkscape:current-layer="Capa_1"
   inkscape:showpageshadow="2"
   inkscape:pagecheckerboard="0"
   inkscape:deskcolor="#d1d1d1" />
<g
   id="g6"
   style="fill:#000000;fill-opacity:1">
	<g
   id="g4"
   style="fill:#000000;fill-opacity:1">
		<path
   d="M 170.086,60.894 C 169.34,59.949 168.625,59.041 167.948,58.167 161.371,49.69 158.029,40.244 155.08,31.912 152.981,25.98 151.168,20.858 148.526,17.187 141.305,7.158 114.109,3.099 108.215,3.28 c -6.405,0.189 -9.062,5.675 -9.873,10.086 -1.932,0.539 -4.46,1.659 -6.687,3.995 -5.687,5.97 3.343,20.115 11.238,27.795 6.315,6.146 10.668,5.847 14.507,5.594 1.725,-0.116 3.36,-0.225 5.386,0.236 4.738,1.073 9.339,4.782 11.356,6.584 -1.84,31.985 3.482,47.734 5.811,54.566 -1.814,-0.189 -4.315,-0.616 -6.803,-1.179 C 119.373,85.46 90.825,88.738 82.137,90.413 69.75,71.347 48.635,65.045 32.669,65.545 17.83,66.026 8.424,65.074 8.329,65.065 6.767,64.891 5.26,65.85 4.745,67.355 c -0.481,1.403 -11.595,34.731 1.958,67.307 13.16,31.63 28.805,57.535 28.962,57.793 0.642,1.058 1.766,1.643 2.922,1.643 0.596,0 1.2,-0.157 1.748,-0.485 15.447,-9.231 22.033,-21.419 24.496,-27.462 30.732,12.02 63.652,7.661 86.212,1.72 25.194,-6.634 42.742,-16.34 43.477,-16.749 0.942,-0.526 1.58,-1.468 1.722,-2.536 6.133,-46.691 -14.079,-72.358 -26.156,-87.692 z m 19.603,85.062 c -10.433,5.369 -72.922,35.349 -125.537,12.535 -0.92,-0.398 -1.966,-0.365 -2.86,0.072 -0.898,0.439 -1.558,1.254 -1.807,2.222 -0.038,0.15 -3.838,14.304 -19.753,25.12 C 35.307,178.268 23.377,156.962 13.007,132.039 2.508,106.802 8.254,80.24 10.464,72.084 c 3.939,0.266 11.778,0.628 22.424,0.28 14.609,-0.492 34.026,5.485 44.677,23.629 0.785,1.34 2.377,1.98 3.874,1.557 0.328,-0.094 32.973,-8.986 46.346,17.884 0.445,0.894 1.26,1.548 2.227,1.79 13.624,3.408 15.597,1.207 16.546,0.145 1.734,-1.934 0.997,-4.091 -0.116,-7.359 -2.222,-6.516 -7.426,-21.775 -5.388,-53.617 0.063,-0.968 -0.29,-1.915 -0.968,-2.608 -0.304,-0.307 -7.504,-7.581 -15.79,-9.46 -2.997,-0.679 -5.412,-0.521 -7.354,-0.387 -3.33,0.222 -5.156,0.345 -9.289,-3.676 -7.381,-7.182 -11.496,-16.159 -10.941,-18.311 2.113,-2.123 4.731,-2.253 4.801,-2.256 1.852,-0.027 3.345,-1.524 3.366,-3.376 0,-0.061 0.16,-6.117 3.538,-6.217 7.071,-0.212 29.913,4.608 34.57,11.073 2.07,2.879 3.732,7.576 5.656,13.013 2.966,8.383 6.658,18.814 13.911,28.163 0.689,0.888 1.415,1.809 2.169,2.767 11.987,15.222 30.021,38.118 24.966,80.838 z"
   id="path2"
   style="opacity:1;fill:#000000;fill-opacity:1" />
	</g>
</g>
<g
   id="g12"
   style="fill:#000000;fill-opacity:1">
	<g
   id="g10"
   style="fill:#000000;fill-opacity:1">
		<path
   d="m 136.052,137.998 c -1,-1.599 -3.106,-2.082 -4.704,-1.085 -24.788,15.486 -60.394,-16.377 -60.75,-16.7 -1.393,-1.265 -3.555,-1.162 -4.821,0.232 -1.266,1.394 -1.162,3.552 0.23,4.82 0.398,0.36 9.887,8.924 22.956,15.461 9.649,4.825 18.729,7.243 26.964,7.243 7.014,0 13.416,-1.754 19.038,-5.267 1.601,-1.001 2.085,-3.105 1.087,-4.704 z"
   id="path8"
   style="fill:#000000;fill-opacity:1" />
	</g>
</g>
<g
   id="g18"
   style="fill:#000000;fill-opacity:1">
	<g
   id="g16"
   style="fill:#000000;fill-opacity:1">
		<path
   d="m 88.409,104.115 -8.75,-17.082 c -0.86,-1.679 -2.917,-2.343 -4.594,-1.483 -1.676,0.86 -2.34,2.917 -1.481,4.594 l 8.75,17.082 c 0.604,1.181 1.799,1.859 3.041,1.859 0.524,0 1.055,-0.121 1.553,-0.375 1.675,-0.861 2.339,-2.917 1.481,-4.595 z"
   id="path14"
   style="fill:#000000;fill-opacity:1" />
	</g>
</g>
<g
   id="g20"
   style="fill:#000000;fill-opacity:1">
</g>
<g
   id="g22"
   style="fill:#000000;fill-opacity:1">
</g>
<g
   id="g24"
   style="fill:#000000;fill-opacity:1">
</g>
<g
   id="g26"
   style="fill:#000000;fill-opacity:1">
</g>
<g
   id="g28"
   style="fill:#000000;fill-opacity:1">
</g>
<g
   id="g30"
   style="fill:#000000;fill-opacity:1">
</g>
<g
   id="g32"
   style="fill:#000000;fill-opacity:1">
</g>
<g
   id="g34"
   style="fill:#000000;fill-opacity:1">
</g>
<g
   id="g36"
   style="fill:#000000;fill-opacity:1">
</g>
<g
   id="g38"
   style="fill:#000000;fill-opacity:1">
</g>
<g
   id="g40"
   style="fill:#000000;fill-opacity:1">
</g>
<g
   id="g42"
   style="fill:#000000;fill-opacity:1">
</g>
<g
   id="g44"
   style="fill:#000000;fill-opacity:1">
</g>
<g
   id="g46"
   style="fill:#000000;fill-opacity:1">
</g>
<g
   id="g48"
   style="fill:#000000;fill-opacity:1">
</g>
</svg>
