<?xml version="1.0" encoding="utf-8"?>

<!-- Uploaded to: SVG Repo, www.svgrepo.com, Generator: SVG Repo Mixer Tools -->
<svg version="1.1" id="Icons" xmlns="http://www.w3.org/2000/svg" xmlns:xlink="http://www.w3.org/1999/xlink" 
	 viewBox="0 0 32 32" xml:space="preserve">
<style type="text/css">
	.st0{fill:none;stroke:#000000;stroke-width:2;stroke-linecap:round;stroke-linejoin:round;stroke-miterlimit:10;}
</style>
<path class="st0" d="M3,30v-5.8c0-1.7,1.3-3.1,3-3.1h0c1.6,0,3,1.4,3,3.1V26v-0.4c0-1.1,0.9-1.9,2-1.9h0c1.1,0,2,0.9,2,1.9V26
	c0,1.6,1.3,3,3,3h0c1.6,0,3-1.3,3-3l0-0.4c0-1.1,0.9-1.9,2-1.9h0c1.1,0,2,0.9,2,1.9V26v-1.8c0-1.7,1.3-3.1,3-3.1h0
	c1.6,0,3,1.4,3,3.1V30"/>
<polyline class="st0" points="13,18 11,18 14,13 14,6 16,3 18,6 18,13 21,18 19,18 "/>
<line class="st0" x1="16" y1="19" x2="16" y2="24"/>
</svg>